M48
; DRILL file {KiCad 7.0.10} date Mon Apr 15 10:50:24 2024
; FORMAT={-:-/ absolute / inch / decimal}
; #@! TF.CreationDate,2024-04-15T10:50:24-06:00
; #@! TF.GenerationSoftware,Kicad,Pcbnew,7.0.10
; #@! TF.FileFunction,Plated,1,4,PTH
FMAT,2
INCH
; #@! TA.AperFunction,Plated,PTH,ComponentDrill
T1C0.0295
; #@! TA.AperFunction,Plated,PTH,ComponentDrill
T2C0.0300
; #@! TA.AperFunction,Plated,PTH,ComponentDrill
T3C0.0315
; #@! TA.AperFunction,Plated,PTH,ComponentDrill
T4C0.0354
; #@! TA.AperFunction,Plated,PTH,ComponentDrill
T5C0.0394
; #@! TA.AperFunction,Plated,PTH,ComponentDrill
T6C0.0433
; #@! TA.AperFunction,Plated,PTH,ComponentDrill
T7C0.0598
; #@! TA.AperFunction,Plated,PTH,ComponentDrill
T8C0.0787
; #@! TA.AperFunction,Plated,PTH,ComponentDrill
T9C0.0866
; #@! TA.AperFunction,Plated,PTH,ComponentDrill
T10C0.1181
%
G90
G05
T1
X6.3673Y-4.1339
X6.4173Y-4.1339
X6.4673Y-4.1339
T2
X5.8701Y-2.4666
X5.9701Y-2.4666
X6.0701Y-2.4666
X6.1701Y-2.4666
X6.5197Y-4.5906
X6.5197Y-6.185
X6.7165Y-4.7083
X6.8165Y-4.7083
X6.9165Y-4.7083
X7.0165Y-4.7083
X7.1165Y-4.7083
X7.2165Y-4.7083
X7.4134Y-4.5906
X7.4134Y-6.185
T3
X4.1732Y-4.2488
X4.1732Y-4.6488
X4.2913Y-4.2488
X4.2913Y-4.6488
X5.0Y-2.5559
X5.0Y-2.9559
X5.0394Y-3.3827
X5.0394Y-3.7827
X6.378Y-4.2882
X6.378Y-4.6882
X6.3957Y-3.4614
X6.3957Y-3.8614
T4
X5.0898Y-4.3469
X5.0898Y-4.4469
X5.0898Y-4.5469
X5.0898Y-4.6469
X5.0898Y-4.7469
X5.0898Y-4.8469
X5.0898Y-4.9469
X5.0898Y-5.0469
X5.0898Y-5.1469
X5.0898Y-5.2469
X5.0898Y-5.3469
X5.0898Y-5.4469
X5.0898Y-5.5469
X5.0898Y-5.6469
X5.0898Y-5.7469
X5.0898Y-5.8469
X5.0898Y-5.9469
X5.0898Y-6.0469
X5.0898Y-6.1469
X6.0898Y-4.3469
X6.0898Y-4.4469
X6.0898Y-4.5469
X6.0898Y-4.6469
X6.0898Y-4.7469
X6.0898Y-4.8469
X6.0898Y-4.9469
X6.0898Y-5.0469
X6.0898Y-5.1469
X6.0898Y-5.2469
X6.0898Y-5.3469
X6.0898Y-5.4469
X6.0898Y-5.5469
X6.0898Y-5.6469
X6.0898Y-5.7469
X6.0898Y-5.8469
X6.0898Y-5.9469
X6.0898Y-6.0469
X6.0898Y-6.1469
T5
X4.0Y-4.0866
X4.1Y-4.0866
X4.2Y-4.0866
X4.3Y-4.0866
X4.4Y-4.0866
X4.5Y-4.0866
X5.4799Y-3.0709
X5.5799Y-3.0709
X5.6799Y-3.0709
X5.7799Y-3.0709
X6.7638Y-3.8701
X6.8189Y-4.2717
X6.8638Y-3.8701
X6.9638Y-3.8701
X7.0638Y-3.8701
X7.1181Y-4.2717
X7.1638Y-3.8701
T6
X3.8484Y-5.1476
X3.8484Y-5.3248
X4.1043Y-5.1476
X4.1043Y-5.3248
X4.3996Y-5.1476
X4.3996Y-5.3248
X4.6555Y-5.1476
X4.6555Y-5.3248
T7
X3.7795Y-4.4457
X3.7795Y-4.6457
X5.2331Y-2.6
X5.4331Y-2.6
X5.6331Y-2.6
T8
X5.1969Y-3.0906
X5.1969Y-3.9567
X5.8898Y-2.8642
X6.063Y-3.0906
X6.063Y-3.9567
T9
X6.5354Y-2.4937
X6.5354Y-3.8543
X7.3764Y-2.4937
X7.3764Y-3.8543
T10
X3.748Y-2.5984
X3.748Y-4.0
X4.7559Y-2.5984
X4.7559Y-4.0
M30
