%TF.GenerationSoftware,KiCad,Pcbnew,7.0.10*%
%TF.CreationDate,2024-04-15T10:50:27-06:00*%
%TF.ProjectId,ducuchu,64756375-6368-4752-9e6b-696361645f70,rev?*%
%TF.SameCoordinates,Original*%
%TF.FileFunction,Soldermask,Bot*%
%TF.FilePolarity,Negative*%
%FSLAX46Y46*%
G04 Gerber Fmt 4.6, Leading zero omitted, Abs format (unit mm)*
G04 Created by KiCad (PCBNEW 7.0.10) date 2024-04-15 10:50:27*
%MOMM*%
%LPD*%
G01*
G04 APERTURE LIST*
G04 Aperture macros list*
%AMRoundRect*
0 Rectangle with rounded corners*
0 $1 Rounding radius*
0 $2 $3 $4 $5 $6 $7 $8 $9 X,Y pos of 4 corners*
0 Add a 4 corners polygon primitive as box body*
4,1,4,$2,$3,$4,$5,$6,$7,$8,$9,$2,$3,0*
0 Add four circle primitives for the rounded corners*
1,1,$1+$1,$2,$3*
1,1,$1+$1,$4,$5*
1,1,$1+$1,$6,$7*
1,1,$1+$1,$8,$9*
0 Add four rect primitives between the rounded corners*
20,1,$1+$1,$2,$3,$4,$5,0*
20,1,$1+$1,$4,$5,$6,$7,0*
20,1,$1+$1,$6,$7,$8,$9,0*
20,1,$1+$1,$8,$9,$2,$3,0*%
G04 Aperture macros list end*
%ADD10C,2.000000*%
%ADD11C,1.600000*%
%ADD12O,1.600000X1.600000*%
%ADD13RoundRect,0.102000X0.754000X0.754000X-0.754000X0.754000X-0.754000X-0.754000X0.754000X-0.754000X0*%
%ADD14C,2.600000*%
%ADD15C,1.712000*%
%ADD16C,3.704000*%
%ADD17R,2.000000X2.000000*%
%ADD18R,3.000000X3.000000*%
%ADD19C,3.000000*%
%ADD20R,1.050000X1.500000*%
%ADD21O,1.050000X1.500000*%
%ADD22C,1.524000*%
%ADD23C,2.704000*%
%ADD24C,3.204000*%
%ADD25RoundRect,0.102000X-0.754000X-0.754000X0.754000X-0.754000X0.754000X0.754000X-0.754000X0.754000X0*%
%ADD26O,3.048800X1.626400*%
G04 APERTURE END LIST*
D10*
%TO.C,SW1*%
X97750000Y-130750000D03*
X104250000Y-130750000D03*
X97750000Y-135250000D03*
X104250000Y-135250000D03*
%TD*%
D11*
%TO.C,R5*%
X162450000Y-98080000D03*
D12*
X162450000Y-87920000D03*
%TD*%
D11*
%TO.C,R4*%
X128000000Y-96080000D03*
D12*
X128000000Y-85920000D03*
%TD*%
D11*
%TO.C,R6*%
X162000000Y-119080000D03*
D12*
X162000000Y-108920000D03*
%TD*%
D13*
%TO.C,U7*%
X171800000Y-98300000D03*
D14*
X166000000Y-63340000D03*
X166000000Y-97900000D03*
D15*
X174340000Y-98300000D03*
D14*
X187360000Y-63340000D03*
X187360000Y-97900000D03*
D15*
X176880000Y-98300000D03*
X179420000Y-98300000D03*
X181960000Y-98300000D03*
%TD*%
%TO.C,U5*%
X101600000Y-103800000D03*
X104140000Y-103800000D03*
X106680000Y-103800000D03*
X109220000Y-103800000D03*
D16*
X95200000Y-66000000D03*
X95200000Y-101600000D03*
D15*
X111760000Y-103800000D03*
D16*
X120800000Y-66000000D03*
X120800000Y-101600000D03*
D15*
X114300000Y-103800000D03*
%TD*%
D17*
%TO.C,BZ1*%
X180800000Y-108500000D03*
D10*
X173200000Y-108500000D03*
%TD*%
D18*
%TO.C,J1*%
X96000000Y-112920000D03*
D19*
X96000000Y-118000000D03*
%TD*%
D18*
%TO.C,U2*%
X143080000Y-66040000D03*
D19*
X138000000Y-66040000D03*
X132920000Y-66040000D03*
%TD*%
D10*
%TO.C,SW2*%
X111750000Y-130750000D03*
X118250000Y-130750000D03*
X111750000Y-135250000D03*
X118250000Y-135250000D03*
%TD*%
D20*
%TO.C,Q1*%
X161730000Y-105000000D03*
D21*
X163000000Y-105000000D03*
X164270000Y-105000000D03*
%TD*%
D11*
%TO.C,R1*%
X127000000Y-64920000D03*
D12*
X127000000Y-75080000D03*
%TD*%
D11*
%TO.C,R2*%
X106000000Y-107920000D03*
D12*
X106000000Y-118080000D03*
%TD*%
D22*
%TO.C,U4*%
X149100000Y-62651000D03*
D23*
X149600000Y-72751000D03*
D22*
X151640000Y-62651000D03*
X154180000Y-62651000D03*
X156720000Y-62651000D03*
%TD*%
D24*
%TO.C,U3*%
X132000000Y-100500000D03*
X154000000Y-100500000D03*
X154000000Y-78500000D03*
X132000000Y-78500000D03*
D15*
X146810000Y-78000000D03*
X144270000Y-78000000D03*
X141730000Y-78000000D03*
D25*
X139190000Y-78000000D03*
%TD*%
D11*
%TO.C,R3*%
X109000000Y-118080000D03*
D12*
X109000000Y-107920000D03*
%TD*%
D26*
%TO.C,U1*%
X129280000Y-110410000D03*
X129280000Y-112950000D03*
X129280000Y-143430000D03*
X154680000Y-110410000D03*
X154680000Y-125650000D03*
X154680000Y-143430000D03*
X154680000Y-145970000D03*
X154680000Y-140890000D03*
X154680000Y-133270000D03*
X154680000Y-156130000D03*
X154680000Y-153590000D03*
X154680000Y-151050000D03*
X129280000Y-148510000D03*
X129280000Y-151050000D03*
X129280000Y-153590000D03*
X129280000Y-140890000D03*
X129280000Y-145970000D03*
X129280000Y-138350000D03*
X154680000Y-148510000D03*
X154680000Y-138350000D03*
X154680000Y-135810000D03*
X154680000Y-130730000D03*
X154680000Y-128190000D03*
X154680000Y-123110000D03*
X154680000Y-115490000D03*
X154680000Y-112950000D03*
X129280000Y-130730000D03*
X129280000Y-133270000D03*
X129280000Y-135810000D03*
X129280000Y-125650000D03*
X129280000Y-128190000D03*
X129280000Y-120570000D03*
X129280000Y-123110000D03*
X129280000Y-115490000D03*
X129280000Y-118030000D03*
X154680000Y-120570000D03*
X154680000Y-118030000D03*
X129280000Y-156130000D03*
%TD*%
D22*
%TO.C,U6*%
X188300000Y-157100000D03*
X188300000Y-116600000D03*
X170600000Y-119590000D03*
X165600000Y-157100000D03*
X165600000Y-116600000D03*
X173140000Y-119590000D03*
X175680000Y-119590000D03*
X178220000Y-119590000D03*
X180760000Y-119590000D03*
X183300000Y-119590000D03*
%TD*%
M02*
